<?xml version="1.0" encoding="utf-8" standalone="no"?>
<!DOCTYPE svg PUBLIC "-//W3C//DTD SVG 1.1//EN"
  "http://www.w3.org/Graphics/SVG/1.1/DTD/svg11.dtd">
<svg xmlns:xlink="http://www.w3.org/1999/xlink" width="432pt" height="720pt" viewBox="0 0 432 720" xmlns="http://www.w3.org/2000/svg" version="1.1">
 <metadata>
  <rdf:RDF xmlns:dc="http://purl.org/dc/elements/1.1/" xmlns:cc="http://creativecommons.org/ns#" xmlns:rdf="http://www.w3.org/1999/02/22-rdf-syntax-ns#">
   <cc:Work>
    <dc:type rdf:resource="http://purl.org/dc/dcmitype/StillImage"/>
    <dc:date>2024-10-21T09:27:55.613524</dc:date>
    <dc:format>image/svg+xml</dc:format>
    <dc:creator>
     <cc:Agent>
      <dc:title>Matplotlib v3.9.0, https://matplotlib.org/</dc:title>
     </cc:Agent>
    </dc:creator>
   </cc:Work>
  </rdf:RDF>
 </metadata>
 <defs>
  <style type="text/css">*{stroke-linejoin: round; stroke-linecap: butt}</style>
 </defs>
 <g id="figure_1">
  <g id="patch_1">
   <path d="M 0 720 
L 432 720 
L 432 0 
L 0 0 
z
" style="fill: #ffffff"/>
  </g>
  <g id="axes_1">
   <g id="patch_2">
    <path d="M 50.092685 345.242463 
L 414.9 345.242463 
L 414.9 26.88 
L 50.092685 26.88 
z
" style="fill: #ffffff"/>
   </g>
   <g id="patch_3">
    <path d="M 50.092685 173627.397825 
L 50.676376 173627.397825 
L 50.676376 41.351021 
L 50.092685 41.351021 
z
" clip-path="url(#p5c7f5aebac)" style="fill: #4682b4; opacity: 0.7; stroke: #000000; stroke-linejoin: miter"/>
   </g>
   <g id="patch_4">
    <path d="M 50.676376 173627.397825 
L 51.260068 173627.397825 
L 51.260068 173627.397825 
L 50.676376 173627.397825 
z
" clip-path="url(#p5c7f5aebac)" style="fill: #4682b4; opacity: 0.7; stroke: #000000; stroke-linejoin: miter"/>
   </g>
   <g id="patch_5">
    <path d="M 51.260068 173627.397825 
L 51.84376 173627.397825 
L 51.84376 173627.397825 
L 51.260068 173627.397825 
z
" clip-path="url(#p5c7f5aebac)" style="fill: #4682b4; opacity: 0.7; stroke: #000000; stroke-linejoin: miter"/>
   </g>
   <g id="patch_6">
    <path d="M 51.84376 173627.397825 
L 52.427452 173627.397825 
L 52.427452 173627.397825 
L 51.84376 173627.397825 
z
" clip-path="url(#p5c7f5aebac)" style="fill: #4682b4; opacity: 0.7; stroke: #000000; stroke-linejoin: miter"/>
   </g>
   <g id="patch_7">
    <path d="M 52.427452 173627.397825 
L 53.011143 173627.397825 
L 53.011143 173627.397825 
L 52.427452 173627.397825 
z
" clip-path="url(#p5c7f5aebac)" style="fill: #4682b4; opacity: 0.7; stroke: #000000; stroke-linejoin: miter"/>
   </g>
   <g id="patch_8">
    <path d="M 53.011143 173627.397825 
L 53.594835 173627.397825 
L 53.594835 173627.397825 
L 53.011143 173627.397825 
z
" clip-path="url(#p5c7f5aebac)" style="fill: #4682b4; opacity: 0.7; stroke: #000000; stroke-linejoin: miter"/>
   </g>
   <g id="patch_9">
    <path d="M 53.594835 173627.397825 
L 54.178527 173627.397825 
L 54.178527 173627.397825 
L 53.594835 173627.397825 
z
" clip-path="url(#p5c7f5aebac)" style="fill: #4682b4; opacity: 0.7; stroke: #000000; stroke-linejoin: miter"/>
   </g>
   <g id="patch_10">
    <path d="M 54.178527 173627.397825 
L 54.762218 173627.397825 
L 54.762218 173627.397825 
L 54.178527 173627.397825 
z
" clip-path="url(#p5c7f5aebac)" style="fill: #4682b4; opacity: 0.7; stroke: #000000; stroke-linejoin: miter"/>
   </g>
   <g id="patch_11">
    <path d="M 54.762218 173627.397825 
L 55.34591 173627.397825 
L 55.34591 173627.397825 
L 54.762218 173627.397825 
z
" clip-path="url(#p5c7f5aebac)" style="fill: #4682b4; opacity: 0.7; stroke: #000000; stroke-linejoin: miter"/>
   </g>
   <g id="patch_12">
    <path d="M 55.34591 173627.397825 
L 55.929602 173627.397825 
L 55.929602 173627.397825 
L 55.34591 173627.397825 
z
" clip-path="url(#p5c7f5aebac)" style="fill: #4682b4; opacity: 0.7; stroke: #000000; stroke-linejoin: miter"/>
   </g>
   <g id="patch_13">
    <path d="M 55.929602 173627.397825 
L 56.513294 173627.397825 
L 56.513294 173627.397825 
L 55.929602 173627.397825 
z
" clip-path="url(#p5c7f5aebac)" style="fill: #4682b4; opacity: 0.7; stroke: #000000; stroke-linejoin: miter"/>
   </g>
   <g id="patch_14">
    <path d="M 56.513294 173627.397825 
L 57.096985 173627.397825 
L 57.096985 173627.397825 
L 56.513294 173627.397825 
z
" clip-path="url(#p5c7f5aebac)" style="fill: #4682b4; opacity: 0.7; stroke: #000000; stroke-linejoin: miter"/>
   </g>
   <g id="patch_15">
    <path d="M 57.096985 173627.397825 
L 57.680677 173627.397825 
L 57.680677 173627.397825 
L 57.096985 173627.397825 
z
" clip-path="url(#p5c7f5aebac)" style="fill: #4682b4; opacity: 0.7; stroke: #000000; stroke-linejoin: miter"/>
   </g>
   <g id="patch_16">
    <path d="M 57.680677 173627.397825 
L 58.264369 173627.397825 
L 58.264369 173627.397825 
L 57.680677 173627.397825 
z
" clip-path="url(#p5c7f5aebac)" style="fill: #4682b4; opacity: 0.7; stroke: #000000; stroke-linejoin: miter"/>
   </g>
   <g id="patch_17">
    <path d="M 58.264369 173627.397825 
L 58.84806 173627.397825 
L 58.84806 173627.397825 
L 58.264369 173627.397825 
z
" clip-path="url(#p5c7f5aebac)" style="fill: #4682b4; opacity: 0.7; stroke: #000000; stroke-linejoin: miter"/>
   </g>
   <g id="patch_18">
    <path d="M 58.84806 173627.397825 
L 59.431752 173627.397825 
L 59.431752 173627.397825 
L 58.84806 173627.397825 
z
" clip-path="url(#p5c7f5aebac)" style="fill: #4682b4; opacity: 0.7; stroke: #000000; stroke-linejoin: miter"/>
   </g>
   <g id="patch_19">
    <path d="M 59.431752 173627.397825 
L 60.015444 173627.397825 
L 60.015444 173627.397825 
L 59.431752 173627.397825 
z
" clip-path="url(#p5c7f5aebac)" style="fill: #4682b4; opacity: 0.7; stroke: #000000; stroke-linejoin: miter"/>
   </g>
   <g id="patch_20">
    <path d="M 60.015444 173627.397825 
L 60.599135 173627.397825 
L 60.599135 173627.397825 
L 60.015444 173627.397825 
z
" clip-path="url(#p5c7f5aebac)" style="fill: #4682b4; opacity: 0.7; stroke: #000000; stroke-linejoin: miter"/>
   </g>
   <g id="patch_21">
    <path d="M 60.599135 173627.397825 
L 61.182827 173627.397825 
L 61.182827 173627.397825 
L 60.599135 173627.397825 
z
" clip-path="url(#p5c7f5aebac)" style="fill: #4682b4; opacity: 0.7; stroke: #000000; stroke-linejoin: miter"/>
   </g>
   <g id="patch_22">
    <path d="M 61.182827 173627.397825 
L 61.766519 173627.397825 
L 61.766519 173627.397825 
L 61.182827 173627.397825 
z
" clip-path="url(#p5c7f5aebac)" style="fill: #4682b4; opacity: 0.7; stroke: #000000; stroke-linejoin: miter"/>
   </g>
   <g id="patch_23">
    <path d="M 61.766519 173627.397825 
L 62.350211 173627.397825 
L 62.350211 173627.397825 
L 61.766519 173627.397825 
z
" clip-path="url(#p5c7f5aebac)" style="fill: #4682b4; opacity: 0.7; stroke: #000000; stroke-linejoin: miter"/>
   </g>
   <g id="patch_24">
    <path d="M 62.350211 173627.397825 
L 62.933902 173627.397825 
L 62.933902 173627.397825 
L 62.350211 173627.397825 
z
" clip-path="url(#p5c7f5aebac)" style="fill: #4682b4; opacity: 0.7; stroke: #000000; stroke-linejoin: miter"/>
   </g>
   <g id="patch_25">
    <path d="M 62.933902 173627.397825 
L 63.517594 173627.397825 
L 63.517594 173627.397825 
L 62.933902 173627.397825 
z
" clip-path="url(#p5c7f5aebac)" style="fill: #4682b4; opacity: 0.7; stroke: #000000; stroke-linejoin: miter"/>
   </g>
   <g id="patch_26">
    <path d="M 63.517594 173627.397825 
L 64.101286 173627.397825 
L 64.101286 173627.397825 
L 63.517594 173627.397825 
z
" clip-path="url(#p5c7f5aebac)" style="fill: #4682b4; opacity: 0.7; stroke: #000000; stroke-linejoin: miter"/>
   </g>
   <g id="patch_27">
    <path d="M 64.101286 173627.397825 
L 64.684977 173627.397825 
L 64.684977 173627.397825 
L 64.101286 173627.397825 
z
" clip-path="url(#p5c7f5aebac)" style="fill: #4682b4; opacity: 0.7; stroke: #000000; stroke-linejoin: miter"/>
   </g>
   <g id="patch_28">
    <path d="M 64.684977 173627.397825 
L 65.268669 173627.397825 
L 65.268669 127.203914 
L 64.684977 127.203914 
z
" clip-path="url(#p5c7f5aebac)" style="fill: #4682b4; opacity: 0.7; stroke: #000000; stroke-linejoin: miter"/>
   </g>
   <g id="patch_29">
    <path d="M 65.268669 173627.397825 
L 65.852361 173627.397825 
L 65.852361 173627.397825 
L 65.268669 173627.397825 
z
" clip-path="url(#p5c7f5aebac)" style="fill: #4682b4; opacity: 0.7; stroke: #000000; stroke-linejoin: miter"/>
   </g>
   <g id="patch_30">
    <path d="M 65.852361 173627.397825 
L 66.436052 173627.397825 
L 66.436052 173627.397825 
L 65.852361 173627.397825 
z
" clip-path="url(#p5c7f5aebac)" style="fill: #4682b4; opacity: 0.7; stroke: #000000; stroke-linejoin: miter"/>
   </g>
   <g id="patch_31">
    <path d="M 66.436052 173627.397825 
L 67.019744 173627.397825 
L 67.019744 173627.397825 
L 66.436052 173627.397825 
z
" clip-path="url(#p5c7f5aebac)" style="fill: #4682b4; opacity: 0.7; stroke: #000000; stroke-linejoin: miter"/>
   </g>
   <g id="patch_32">
    <path d="M 67.019744 173627.397825 
L 67.603436 173627.397825 
L 67.603436 173627.397825 
L 67.019744 173627.397825 
z
" clip-path="url(#p5c7f5aebac)" style="fill: #4682b4; opacity: 0.7; stroke: #000000; stroke-linejoin: miter"/>
   </g>
   <g id="patch_33">
    <path d="M 67.603436 173627.397825 
L 68.187128 173627.397825 
L 68.187128 173627.397825 
L 67.603436 173627.397825 
z
" clip-path="url(#p5c7f5aebac)" style="fill: #4682b4; opacity: 0.7; stroke: #000000; stroke-linejoin: miter"/>
   </g>
   <g id="patch_34">
    <path d="M 68.187128 173627.397825 
L 68.770819 173627.397825 
L 68.770819 173627.397825 
L 68.187128 173627.397825 
z
" clip-path="url(#p5c7f5aebac)" style="fill: #4682b4; opacity: 0.7; stroke: #000000; stroke-linejoin: miter"/>
   </g>
   <g id="patch_35">
    <path d="M 68.770819 173627.397825 
L 69.354511 173627.397825 
L 69.354511 173627.397825 
L 68.770819 173627.397825 
z
" clip-path="url(#p5c7f5aebac)" style="fill: #4682b4; opacity: 0.7; stroke: #000000; stroke-linejoin: miter"/>
   </g>
   <g id="patch_36">
    <path d="M 69.354511 173627.397825 
L 69.938203 173627.397825 
L 69.938203 173627.397825 
L 69.354511 173627.397825 
z
" clip-path="url(#p5c7f5aebac)" style="fill: #4682b4; opacity: 0.7; stroke: #000000; stroke-linejoin: miter"/>
   </g>
   <g id="patch_37">
    <path d="M 69.938203 173627.397825 
L 70.521894 173627.397825 
L 70.521894 173627.397825 
L 69.938203 173627.397825 
z
" clip-path="url(#p5c7f5aebac)" style="fill: #4682b4; opacity: 0.7; stroke: #000000; stroke-linejoin: miter"/>
   </g>
   <g id="patch_38">
    <path d="M 70.521894 173627.397825 
L 71.105586 173627.397825 
L 71.105586 173627.397825 
L 70.521894 173627.397825 
z
" clip-path="url(#p5c7f5aebac)" style="fill: #4682b4; opacity: 0.7; stroke: #000000; stroke-linejoin: miter"/>
   </g>
   <g id="patch_39">
    <path d="M 71.105586 173627.397825 
L 71.689278 173627.397825 
L 71.689278 173627.397825 
L 71.105586 173627.397825 
z
" clip-path="url(#p5c7f5aebac)" style="fill: #4682b4; opacity: 0.7; stroke: #000000; stroke-linejoin: miter"/>
   </g>
   <g id="patch_40">
    <path d="M 71.689278 173627.397825 
L 72.27297 173627.397825 
L 72.27297 173627.397825 
L 71.689278 173627.397825 
z
" clip-path="url(#p5c7f5aebac)" style="fill: #4682b4; opacity: 0.7; stroke: #000000; stroke-linejoin: miter"/>
   </g>
   <g id="patch_41">
    <path d="M 72.27297 173627.397825 
L 72.856661 173627.397825 
L 72.856661 173627.397825 
L 72.27297 173627.397825 
z
" clip-path="url(#p5c7f5aebac)" style="fill: #4682b4; opacity: 0.7; stroke: #000000; stroke-linejoin: miter"/>
   </g>
   <g id="patch_42">
    <path d="M 72.856661 173627.397825 
L 73.440353 173627.397825 
L 73.440353 173627.397825 
L 72.856661 173627.397825 
z
" clip-path="url(#p5c7f5aebac)" style="fill: #4682b4; opacity: 0.7; stroke: #000000; stroke-linejoin: miter"/>
   </g>
   <g id="patch_43">
    <path d="M 73.440353 173627.397825 
L 74.024045 173627.397825 
L 74.024045 173627.397825 
L 73.440353 173627.397825 
z
" clip-path="url(#p5c7f5aebac)" style="fill: #4682b4; opacity: 0.7; stroke: #000000; stroke-linejoin: miter"/>
   </g>
   <g id="patch_44">
    <path d="M 74.024045 173627.397825 
L 74.607736 173627.397825 
L 74.607736 173627.397825 
L 74.024045 173627.397825 
z
" clip-path="url(#p5c7f5aebac)" style="fill: #4682b4; opacity: 0.7; stroke: #000000; stroke-linejoin: miter"/>
   </g>
   <g id="patch_45">
    <path d="M 74.607736 173627.397825 
L 75.191428 173627.397825 
L 75.191428 173627.397825 
L 74.607736 173627.397825 
z
" clip-path="url(#p5c7f5aebac)" style="fill: #4682b4; opacity: 0.7; stroke: #000000; stroke-linejoin: miter"/>
   </g>
   <g id="patch_46">
    <path d="M 75.191428 173627.397825 
L 75.77512 173627.397825 
L 75.77512 173627.397825 
L 75.191428 173627.397825 
z
" clip-path="url(#p5c7f5aebac)" style="fill: #4682b4; opacity: 0.7; stroke: #000000; stroke-linejoin: miter"/>
   </g>
   <g id="patch_47">
    <path d="M 75.77512 173627.397825 
L 76.358811 173627.397825 
L 76.358811 173627.397825 
L 75.77512 173627.397825 
z
" clip-path="url(#p5c7f5aebac)" style="fill: #4682b4; opacity: 0.7; stroke: #000000; stroke-linejoin: miter"/>
   </g>
   <g id="patch_48">
    <path d="M 76.358811 173627.397825 
L 76.942503 173627.397825 
L 76.942503 173627.397825 
L 76.358811 173627.397825 
z
" clip-path="url(#p5c7f5aebac)" style="fill: #4682b4; opacity: 0.7; stroke: #000000; stroke-linejoin: miter"/>
   </g>
   <g id="patch_49">
    <path d="M 76.942503 173627.397825 
L 77.526195 173627.397825 
L 77.526195 173627.397825 
L 76.942503 173627.397825 
z
" clip-path="url(#p5c7f5aebac)" style="fill: #4682b4; opacity: 0.7; stroke: #000000; stroke-linejoin: miter"/>
   </g>
   <g id="patch_50">
    <path d="M 77.526195 173627.397825 
L 78.109887 173627.397825 
L 78.109887 173627.397825 
L 77.526195 173627.397825 
z
" clip-path="url(#p5c7f5aebac)" style="fill: #4682b4; opacity: 0.7; stroke: #000000; stroke-linejoin: miter"/>
   </g>
   <g id="patch_51">
    <path d="M 78.109887 173627.397825 
L 78.693578 173627.397825 
L 78.693578 173627.397825 
L 78.109887 173627.397825 
z
" clip-path="url(#p5c7f5aebac)" style="fill: #4682b4; opacity: 0.7; stroke: #000000; stroke-linejoin: miter"/>
   </g>
   <g id="patch_52">
    <path d="M 78.693578 173627.397825 
L 79.27727 173627.397825 
L 79.27727 330.771442 
L 78.693578 330.771442 
z
" clip-path="url(#p5c7f5aebac)" style="fill: #4682b4; opacity: 0.7; stroke: #000000; stroke-linejoin: miter"/>
   </g>
   <g id="matplotlib.axis_1">
    <g id="xtick_1">
     <g id="line2d_1">
      <defs>
       <path id="m0ca2636fa7" d="M 0 0 
L 0 3.5 
" style="stroke: #000000; stroke-width: 0.8"/>
      </defs>
      <g>
       <use xlink:href="#m0ca2636fa7" x="50.092685" y="345.242463" style="stroke: #000000; stroke-width: 0.8"/>
      </g>
     </g>
    </g>
    <g id="xtick_2">
     <g id="line2d_2">
      <g>
       <use xlink:href="#m0ca2636fa7" x="123.054148" y="345.242463" style="stroke: #000000; stroke-width: 0.8"/>
      </g>
     </g>
    </g>
    <g id="xtick_3">
     <g id="line2d_3">
      <g>
       <use xlink:href="#m0ca2636fa7" x="196.015611" y="345.242463" style="stroke: #000000; stroke-width: 0.8"/>
      </g>
     </g>
    </g>
    <g id="xtick_4">
     <g id="line2d_4">
      <g>
       <use xlink:href="#m0ca2636fa7" x="268.977074" y="345.242463" style="stroke: #000000; stroke-width: 0.8"/>
      </g>
     </g>
    </g>
    <g id="xtick_5">
     <g id="line2d_5">
      <g>
       <use xlink:href="#m0ca2636fa7" x="341.938537" y="345.242463" style="stroke: #000000; stroke-width: 0.8"/>
      </g>
     </g>
    </g>
    <g id="xtick_6">
     <g id="line2d_6">
      <g>
       <use xlink:href="#m0ca2636fa7" x="414.9" y="345.242463" style="stroke: #000000; stroke-width: 0.8"/>
      </g>
     </g>
    </g>
   </g>
   <g id="matplotlib.axis_2">
    <g id="ytick_1">
     <g id="line2d_7">
      <defs>
       <path id="m267685d566" d="M 0 0 
L -3.5 0 
" style="stroke: #000000; stroke-width: 0.8"/>
      </defs>
      <g>
       <use xlink:href="#m267685d566" x="50.092685" y="193.013996" style="stroke: #000000; stroke-width: 0.8"/>
      </g>
     </g>
     <g id="text_1">
      <!-- $\mathdefault{10^{2}}$ -->
      <g transform="translate(25.492685 196.813215) scale(0.1 -0.1)">
       <defs>
        <path id="DejaVuSans-31" d="M 794 531 
L 1825 531 
L 1825 4091 
L 703 3866 
L 703 4441 
L 1819 4666 
L 2450 4666 
L 2450 531 
L 3481 531 
L 3481 0 
L 794 0 
L 794 531 
z
" transform="scale(0.015625)"/>
        <path id="DejaVuSans-30" d="M 2034 4250 
Q 1547 4250 1301 3770 
Q 1056 3291 1056 2328 
Q 1056 1369 1301 889 
Q 1547 409 2034 409 
Q 2525 409 2770 889 
Q 3016 1369 3016 2328 
Q 3016 3291 2770 3770 
Q 2525 4250 2034 4250 
z
M 2034 4750 
Q 2819 4750 3233 4129 
Q 3647 3509 3647 2328 
Q 3647 1150 3233 529 
Q 2819 -91 2034 -91 
Q 1250 -91 836 529 
Q 422 1150 422 2328 
Q 422 3509 836 4129 
Q 1250 4750 2034 4750 
z
" transform="scale(0.015625)"/>
        <path id="DejaVuSans-32" d="M 1228 531 
L 3431 531 
L 3431 0 
L 469 0 
L 469 531 
Q 828 903 1448 1529 
Q 2069 2156 2228 2338 
Q 2531 2678 2651 2914 
Q 2772 3150 2772 3378 
Q 2772 3750 2511 3984 
Q 2250 4219 1831 4219 
Q 1534 4219 1204 4116 
Q 875 4013 500 3803 
L 500 4441 
Q 881 4594 1212 4672 
Q 1544 4750 1819 4750 
Q 2544 4750 2975 4387 
Q 3406 4025 3406 3419 
Q 3406 3131 3298 2873 
Q 3191 2616 2906 2266 
Q 2828 2175 2409 1742 
Q 1991 1309 1228 531 
z
" transform="scale(0.015625)"/>
       </defs>
       <use xlink:href="#DejaVuSans-31" transform="translate(0 0.765625)"/>
       <use xlink:href="#DejaVuSans-30" transform="translate(63.623047 0.765625)"/>
       <use xlink:href="#DejaVuSans-32" transform="translate(128.203125 39.046875) scale(0.7)"/>
      </g>
     </g>
    </g>
    <g id="ytick_2">
     <g id="line2d_8">
      <defs>
       <path id="m13924427ac" d="M 0 0 
L -2 0 
" style="stroke: #000000; stroke-width: 0.6"/>
      </defs>
      <g>
       <use xlink:href="#m13924427ac" x="50.092685" y="313.997461" style="stroke: #000000; stroke-width: 0.6"/>
      </g>
     </g>
    </g>
    <g id="ytick_3">
     <g id="line2d_9">
      <g>
       <use xlink:href="#m13924427ac" x="50.092685" y="283.518141" style="stroke: #000000; stroke-width: 0.6"/>
      </g>
     </g>
    </g>
    <g id="ytick_4">
     <g id="line2d_10">
      <g>
       <use xlink:href="#m13924427ac" x="50.092685" y="261.892719" style="stroke: #000000; stroke-width: 0.6"/>
      </g>
     </g>
    </g>
    <g id="ytick_5">
     <g id="line2d_11">
      <g>
       <use xlink:href="#m13924427ac" x="50.092685" y="245.118739" style="stroke: #000000; stroke-width: 0.6"/>
      </g>
     </g>
    </g>
    <g id="ytick_6">
     <g id="line2d_12">
      <g>
       <use xlink:href="#m13924427ac" x="50.092685" y="231.413399" style="stroke: #000000; stroke-width: 0.6"/>
      </g>
     </g>
    </g>
    <g id="ytick_7">
     <g id="line2d_13">
      <g>
       <use xlink:href="#m13924427ac" x="50.092685" y="219.825699" style="stroke: #000000; stroke-width: 0.6"/>
      </g>
     </g>
    </g>
    <g id="ytick_8">
     <g id="line2d_14">
      <g>
       <use xlink:href="#m13924427ac" x="50.092685" y="209.787977" style="stroke: #000000; stroke-width: 0.6"/>
      </g>
     </g>
    </g>
    <g id="ytick_9">
     <g id="line2d_15">
      <g>
       <use xlink:href="#m13924427ac" x="50.092685" y="200.934078" style="stroke: #000000; stroke-width: 0.6"/>
      </g>
     </g>
    </g>
    <g id="ytick_10">
     <g id="line2d_16">
      <g>
       <use xlink:href="#m13924427ac" x="50.092685" y="140.909254" style="stroke: #000000; stroke-width: 0.6"/>
      </g>
     </g>
    </g>
    <g id="ytick_11">
     <g id="line2d_17">
      <g>
       <use xlink:href="#m13924427ac" x="50.092685" y="110.429934" style="stroke: #000000; stroke-width: 0.6"/>
      </g>
     </g>
    </g>
    <g id="ytick_12">
     <g id="line2d_18">
      <g>
       <use xlink:href="#m13924427ac" x="50.092685" y="88.804512" style="stroke: #000000; stroke-width: 0.6"/>
      </g>
     </g>
    </g>
    <g id="ytick_13">
     <g id="line2d_19">
      <g>
       <use xlink:href="#m13924427ac" x="50.092685" y="72.030531" style="stroke: #000000; stroke-width: 0.6"/>
      </g>
     </g>
    </g>
    <g id="ytick_14">
     <g id="line2d_20">
      <g>
       <use xlink:href="#m13924427ac" x="50.092685" y="58.325191" style="stroke: #000000; stroke-width: 0.6"/>
      </g>
     </g>
    </g>
    <g id="ytick_15">
     <g id="line2d_21">
      <g>
       <use xlink:href="#m13924427ac" x="50.092685" y="46.737492" style="stroke: #000000; stroke-width: 0.6"/>
      </g>
     </g>
    </g>
    <g id="ytick_16">
     <g id="line2d_22">
      <g>
       <use xlink:href="#m13924427ac" x="50.092685" y="36.699769" style="stroke: #000000; stroke-width: 0.6"/>
      </g>
     </g>
    </g>
    <g id="ytick_17">
     <g id="line2d_23">
      <g>
       <use xlink:href="#m13924427ac" x="50.092685" y="27.845871" style="stroke: #000000; stroke-width: 0.6"/>
      </g>
     </g>
    </g>
    <g id="text_2">
     <!-- Frequency -->
     <g transform="translate(19.412997 211.890919) rotate(-90) scale(0.1 -0.1)">
      <defs>
       <path id="DejaVuSans-46" d="M 628 4666 
L 3309 4666 
L 3309 4134 
L 1259 4134 
L 1259 2759 
L 3109 2759 
L 3109 2228 
L 1259 2228 
L 1259 0 
L 628 0 
L 628 4666 
z
" transform="scale(0.015625)"/>
       <path id="DejaVuSans-72" d="M 2631 2963 
Q 2534 3019 2420 3045 
Q 2306 3072 2169 3072 
Q 1681 3072 1420 2755 
Q 1159 2438 1159 1844 
L 1159 0 
L 581 0 
L 581 3500 
L 1159 3500 
L 1159 2956 
Q 1341 3275 1631 3429 
Q 1922 3584 2338 3584 
Q 2397 3584 2469 3576 
Q 2541 3569 2628 3553 
L 2631 2963 
z
" transform="scale(0.015625)"/>
       <path id="DejaVuSans-65" d="M 3597 1894 
L 3597 1613 
L 953 1613 
Q 991 1019 1311 708 
Q 1631 397 2203 397 
Q 2534 397 2845 478 
Q 3156 559 3463 722 
L 3463 178 
Q 3153 47 2828 -22 
Q 2503 -91 2169 -91 
Q 1331 -91 842 396 
Q 353 884 353 1716 
Q 353 2575 817 3079 
Q 1281 3584 2069 3584 
Q 2775 3584 3186 3129 
Q 3597 2675 3597 1894 
z
M 3022 2063 
Q 3016 2534 2758 2815 
Q 2500 3097 2075 3097 
Q 1594 3097 1305 2825 
Q 1016 2553 972 2059 
L 3022 2063 
z
" transform="scale(0.015625)"/>
       <path id="DejaVuSans-71" d="M 947 1747 
Q 947 1113 1208 752 
Q 1469 391 1925 391 
Q 2381 391 2643 752 
Q 2906 1113 2906 1747 
Q 2906 2381 2643 2742 
Q 2381 3103 1925 3103 
Q 1469 3103 1208 2742 
Q 947 2381 947 1747 
z
M 2906 525 
Q 2725 213 2448 61 
Q 2172 -91 1784 -91 
Q 1150 -91 751 415 
Q 353 922 353 1747 
Q 353 2572 751 3078 
Q 1150 3584 1784 3584 
Q 2172 3584 2448 3432 
Q 2725 3281 2906 2969 
L 2906 3500 
L 3481 3500 
L 3481 -1331 
L 2906 -1331 
L 2906 525 
z
" transform="scale(0.015625)"/>
       <path id="DejaVuSans-75" d="M 544 1381 
L 544 3500 
L 1119 3500 
L 1119 1403 
Q 1119 906 1312 657 
Q 1506 409 1894 409 
Q 2359 409 2629 706 
Q 2900 1003 2900 1516 
L 2900 3500 
L 3475 3500 
L 3475 0 
L 2900 0 
L 2900 538 
Q 2691 219 2414 64 
Q 2138 -91 1772 -91 
Q 1169 -91 856 284 
Q 544 659 544 1381 
z
M 1991 3584 
L 1991 3584 
z
" transform="scale(0.015625)"/>
       <path id="DejaVuSans-6e" d="M 3513 2113 
L 3513 0 
L 2938 0 
L 2938 2094 
Q 2938 2591 2744 2837 
Q 2550 3084 2163 3084 
Q 1697 3084 1428 2787 
Q 1159 2491 1159 1978 
L 1159 0 
L 581 0 
L 581 3500 
L 1159 3500 
L 1159 2956 
Q 1366 3272 1645 3428 
Q 1925 3584 2291 3584 
Q 2894 3584 3203 3211 
Q 3513 2838 3513 2113 
z
" transform="scale(0.015625)"/>
       <path id="DejaVuSans-63" d="M 3122 3366 
L 3122 2828 
Q 2878 2963 2633 3030 
Q 2388 3097 2138 3097 
Q 1578 3097 1268 2742 
Q 959 2388 959 1747 
Q 959 1106 1268 751 
Q 1578 397 2138 397 
Q 2388 397 2633 464 
Q 2878 531 3122 666 
L 3122 134 
Q 2881 22 2623 -34 
Q 2366 -91 2075 -91 
Q 1284 -91 818 406 
Q 353 903 353 1747 
Q 353 2603 823 3093 
Q 1294 3584 2113 3584 
Q 2378 3584 2631 3529 
Q 2884 3475 3122 3366 
z
" transform="scale(0.015625)"/>
       <path id="DejaVuSans-79" d="M 2059 -325 
Q 1816 -950 1584 -1140 
Q 1353 -1331 966 -1331 
L 506 -1331 
L 506 -850 
L 844 -850 
Q 1081 -850 1212 -737 
Q 1344 -625 1503 -206 
L 1606 56 
L 191 3500 
L 800 3500 
L 1894 763 
L 2988 3500 
L 3597 3500 
L 2059 -325 
z
" transform="scale(0.015625)"/>
      </defs>
      <use xlink:href="#DejaVuSans-46"/>
      <use xlink:href="#DejaVuSans-72" x="50.269531"/>
      <use xlink:href="#DejaVuSans-65" x="89.132812"/>
      <use xlink:href="#DejaVuSans-71" x="150.65625"/>
      <use xlink:href="#DejaVuSans-75" x="214.132812"/>
      <use xlink:href="#DejaVuSans-65" x="277.511719"/>
      <use xlink:href="#DejaVuSans-6e" x="339.035156"/>
      <use xlink:href="#DejaVuSans-63" x="402.414062"/>
      <use xlink:href="#DejaVuSans-79" x="457.394531"/>
     </g>
    </g>
   </g>
   <g id="patch_53">
    <path d="M 50.092685 345.242463 
L 50.092685 26.88 
" style="fill: none; stroke: #000000; stroke-width: 0.8; stroke-linejoin: miter; stroke-linecap: square"/>
   </g>
   <g id="patch_54">
    <path d="M 414.9 345.242463 
L 414.9 26.88 
" style="fill: none; stroke: #000000; stroke-width: 0.8; stroke-linejoin: miter; stroke-linecap: square"/>
   </g>
   <g id="patch_55">
    <path d="M 50.092685 345.242463 
L 414.9 345.242463 
" style="fill: none; stroke: #000000; stroke-width: 0.8; stroke-linejoin: miter; stroke-linecap: square"/>
   </g>
   <g id="patch_56">
    <path d="M 50.092685 26.88 
L 414.9 26.88 
" style="fill: none; stroke: #000000; stroke-width: 0.8; stroke-linejoin: miter; stroke-linecap: square"/>
   </g>
   <g id="text_3">
    <!-- Histogram of TP53 Mutation Counts -->
    <g transform="translate(125.597905 20.88) scale(0.12 -0.12)">
     <defs>
      <path id="DejaVuSans-48" d="M 628 4666 
L 1259 4666 
L 1259 2753 
L 3553 2753 
L 3553 4666 
L 4184 4666 
L 4184 0 
L 3553 0 
L 3553 2222 
L 1259 2222 
L 1259 0 
L 628 0 
L 628 4666 
z
" transform="scale(0.015625)"/>
      <path id="DejaVuSans-69" d="M 603 3500 
L 1178 3500 
L 1178 0 
L 603 0 
L 603 3500 
z
M 603 4863 
L 1178 4863 
L 1178 4134 
L 603 4134 
L 603 4863 
z
" transform="scale(0.015625)"/>
      <path id="DejaVuSans-73" d="M 2834 3397 
L 2834 2853 
Q 2591 2978 2328 3040 
Q 2066 3103 1784 3103 
Q 1356 3103 1142 2972 
Q 928 2841 928 2578 
Q 928 2378 1081 2264 
Q 1234 2150 1697 2047 
L 1894 2003 
Q 2506 1872 2764 1633 
Q 3022 1394 3022 966 
Q 3022 478 2636 193 
Q 2250 -91 1575 -91 
Q 1294 -91 989 -36 
Q 684 19 347 128 
L 347 722 
Q 666 556 975 473 
Q 1284 391 1588 391 
Q 1994 391 2212 530 
Q 2431 669 2431 922 
Q 2431 1156 2273 1281 
Q 2116 1406 1581 1522 
L 1381 1569 
Q 847 1681 609 1914 
Q 372 2147 372 2553 
Q 372 3047 722 3315 
Q 1072 3584 1716 3584 
Q 2034 3584 2315 3537 
Q 2597 3491 2834 3397 
z
" transform="scale(0.015625)"/>
      <path id="DejaVuSans-74" d="M 1172 4494 
L 1172 3500 
L 2356 3500 
L 2356 3053 
L 1172 3053 
L 1172 1153 
Q 1172 725 1289 603 
Q 1406 481 1766 481 
L 2356 481 
L 2356 0 
L 1766 0 
Q 1100 0 847 248 
Q 594 497 594 1153 
L 594 3053 
L 172 3053 
L 172 3500 
L 594 3500 
L 594 4494 
L 1172 4494 
z
" transform="scale(0.015625)"/>
      <path id="DejaVuSans-6f" d="M 1959 3097 
Q 1497 3097 1228 2736 
Q 959 2375 959 1747 
Q 959 1119 1226 758 
Q 1494 397 1959 397 
Q 2419 397 2687 759 
Q 2956 1122 2956 1747 
Q 2956 2369 2687 2733 
Q 2419 3097 1959 3097 
z
M 1959 3584 
Q 2709 3584 3137 3096 
Q 3566 2609 3566 1747 
Q 3566 888 3137 398 
Q 2709 -91 1959 -91 
Q 1206 -91 779 398 
Q 353 888 353 1747 
Q 353 2609 779 3096 
Q 1206 3584 1959 3584 
z
" transform="scale(0.015625)"/>
      <path id="DejaVuSans-67" d="M 2906 1791 
Q 2906 2416 2648 2759 
Q 2391 3103 1925 3103 
Q 1463 3103 1205 2759 
Q 947 2416 947 1791 
Q 947 1169 1205 825 
Q 1463 481 1925 481 
Q 2391 481 2648 825 
Q 2906 1169 2906 1791 
z
M 3481 434 
Q 3481 -459 3084 -895 
Q 2688 -1331 1869 -1331 
Q 1566 -1331 1297 -1286 
Q 1028 -1241 775 -1147 
L 775 -588 
Q 1028 -725 1275 -790 
Q 1522 -856 1778 -856 
Q 2344 -856 2625 -561 
Q 2906 -266 2906 331 
L 2906 616 
Q 2728 306 2450 153 
Q 2172 0 1784 0 
Q 1141 0 747 490 
Q 353 981 353 1791 
Q 353 2603 747 3093 
Q 1141 3584 1784 3584 
Q 2172 3584 2450 3431 
Q 2728 3278 2906 2969 
L 2906 3500 
L 3481 3500 
L 3481 434 
z
" transform="scale(0.015625)"/>
      <path id="DejaVuSans-61" d="M 2194 1759 
Q 1497 1759 1228 1600 
Q 959 1441 959 1056 
Q 959 750 1161 570 
Q 1363 391 1709 391 
Q 2188 391 2477 730 
Q 2766 1069 2766 1631 
L 2766 1759 
L 2194 1759 
z
M 3341 1997 
L 3341 0 
L 2766 0 
L 2766 531 
Q 2569 213 2275 61 
Q 1981 -91 1556 -91 
Q 1019 -91 701 211 
Q 384 513 384 1019 
Q 384 1609 779 1909 
Q 1175 2209 1959 2209 
L 2766 2209 
L 2766 2266 
Q 2766 2663 2505 2880 
Q 2244 3097 1772 3097 
Q 1472 3097 1187 3025 
Q 903 2953 641 2809 
L 641 3341 
Q 956 3463 1253 3523 
Q 1550 3584 1831 3584 
Q 2591 3584 2966 3190 
Q 3341 2797 3341 1997 
z
" transform="scale(0.015625)"/>
      <path id="DejaVuSans-6d" d="M 3328 2828 
Q 3544 3216 3844 3400 
Q 4144 3584 4550 3584 
Q 5097 3584 5394 3201 
Q 5691 2819 5691 2113 
L 5691 0 
L 5113 0 
L 5113 2094 
Q 5113 2597 4934 2840 
Q 4756 3084 4391 3084 
Q 3944 3084 3684 2787 
Q 3425 2491 3425 1978 
L 3425 0 
L 2847 0 
L 2847 2094 
Q 2847 2600 2669 2842 
Q 2491 3084 2119 3084 
Q 1678 3084 1418 2786 
Q 1159 2488 1159 1978 
L 1159 0 
L 581 0 
L 581 3500 
L 1159 3500 
L 1159 2956 
Q 1356 3278 1631 3431 
Q 1906 3584 2284 3584 
Q 2666 3584 2933 3390 
Q 3200 3197 3328 2828 
z
" transform="scale(0.015625)"/>
      <path id="DejaVuSans-20" transform="scale(0.015625)"/>
      <path id="DejaVuSans-66" d="M 2375 4863 
L 2375 4384 
L 1825 4384 
Q 1516 4384 1395 4259 
Q 1275 4134 1275 3809 
L 1275 3500 
L 2222 3500 
L 2222 3053 
L 1275 3053 
L 1275 0 
L 697 0 
L 697 3053 
L 147 3053 
L 147 3500 
L 697 3500 
L 697 3744 
Q 697 4328 969 4595 
Q 1241 4863 1831 4863 
L 2375 4863 
z
" transform="scale(0.015625)"/>
      <path id="DejaVuSans-54" d="M -19 4666 
L 3928 4666 
L 3928 4134 
L 2272 4134 
L 2272 0 
L 1638 0 
L 1638 4134 
L -19 4134 
L -19 4666 
z
" transform="scale(0.015625)"/>
      <path id="DejaVuSans-50" d="M 1259 4147 
L 1259 2394 
L 2053 2394 
Q 2494 2394 2734 2622 
Q 2975 2850 2975 3272 
Q 2975 3691 2734 3919 
Q 2494 4147 2053 4147 
L 1259 4147 
z
M 628 4666 
L 2053 4666 
Q 2838 4666 3239 4311 
Q 3641 3956 3641 3272 
Q 3641 2581 3239 2228 
Q 2838 1875 2053 1875 
L 1259 1875 
L 1259 0 
L 628 0 
L 628 4666 
z
" transform="scale(0.015625)"/>
      <path id="DejaVuSans-35" d="M 691 4666 
L 3169 4666 
L 3169 4134 
L 1269 4134 
L 1269 2991 
Q 1406 3038 1543 3061 
Q 1681 3084 1819 3084 
Q 2600 3084 3056 2656 
Q 3513 2228 3513 1497 
Q 3513 744 3044 326 
Q 2575 -91 1722 -91 
Q 1428 -91 1123 -41 
Q 819 9 494 109 
L 494 744 
Q 775 591 1075 516 
Q 1375 441 1709 441 
Q 2250 441 2565 725 
Q 2881 1009 2881 1497 
Q 2881 1984 2565 2268 
Q 2250 2553 1709 2553 
Q 1456 2553 1204 2497 
Q 953 2441 691 2322 
L 691 4666 
z
" transform="scale(0.015625)"/>
      <path id="DejaVuSans-33" d="M 2597 2516 
Q 3050 2419 3304 2112 
Q 3559 1806 3559 1356 
Q 3559 666 3084 287 
Q 2609 -91 1734 -91 
Q 1441 -91 1130 -33 
Q 819 25 488 141 
L 488 750 
Q 750 597 1062 519 
Q 1375 441 1716 441 
Q 2309 441 2620 675 
Q 2931 909 2931 1356 
Q 2931 1769 2642 2001 
Q 2353 2234 1838 2234 
L 1294 2234 
L 1294 2753 
L 1863 2753 
Q 2328 2753 2575 2939 
Q 2822 3125 2822 3475 
Q 2822 3834 2567 4026 
Q 2313 4219 1838 4219 
Q 1578 4219 1281 4162 
Q 984 4106 628 3988 
L 628 4550 
Q 988 4650 1302 4700 
Q 1616 4750 1894 4750 
Q 2613 4750 3031 4423 
Q 3450 4097 3450 3541 
Q 3450 3153 3228 2886 
Q 3006 2619 2597 2516 
z
" transform="scale(0.015625)"/>
      <path id="DejaVuSans-4d" d="M 628 4666 
L 1569 4666 
L 2759 1491 
L 3956 4666 
L 4897 4666 
L 4897 0 
L 4281 0 
L 4281 4097 
L 3078 897 
L 2444 897 
L 1241 4097 
L 1241 0 
L 628 0 
L 628 4666 
z
" transform="scale(0.015625)"/>
      <path id="DejaVuSans-43" d="M 4122 4306 
L 4122 3641 
Q 3803 3938 3442 4084 
Q 3081 4231 2675 4231 
Q 1875 4231 1450 3742 
Q 1025 3253 1025 2328 
Q 1025 1406 1450 917 
Q 1875 428 2675 428 
Q 3081 428 3442 575 
Q 3803 722 4122 1019 
L 4122 359 
Q 3791 134 3420 21 
Q 3050 -91 2638 -91 
Q 1578 -91 968 557 
Q 359 1206 359 2328 
Q 359 3453 968 4101 
Q 1578 4750 2638 4750 
Q 3056 4750 3426 4639 
Q 3797 4528 4122 4306 
z
" transform="scale(0.015625)"/>
     </defs>
     <use xlink:href="#DejaVuSans-48"/>
     <use xlink:href="#DejaVuSans-69" x="75.195312"/>
     <use xlink:href="#DejaVuSans-73" x="102.978516"/>
     <use xlink:href="#DejaVuSans-74" x="155.078125"/>
     <use xlink:href="#DejaVuSans-6f" x="194.287109"/>
     <use xlink:href="#DejaVuSans-67" x="255.46875"/>
     <use xlink:href="#DejaVuSans-72" x="318.945312"/>
     <use xlink:href="#DejaVuSans-61" x="360.058594"/>
     <use xlink:href="#DejaVuSans-6d" x="421.337891"/>
     <use xlink:href="#DejaVuSans-20" x="518.75"/>
     <use xlink:href="#DejaVuSans-6f" x="550.537109"/>
     <use xlink:href="#DejaVuSans-66" x="611.71875"/>
     <use xlink:href="#DejaVuSans-20" x="646.923828"/>
     <use xlink:href="#DejaVuSans-54" x="678.710938"/>
     <use xlink:href="#DejaVuSans-50" x="739.794922"/>
     <use xlink:href="#DejaVuSans-35" x="800.097656"/>
     <use xlink:href="#DejaVuSans-33" x="863.720703"/>
     <use xlink:href="#DejaVuSans-20" x="927.34375"/>
     <use xlink:href="#DejaVuSans-4d" x="959.130859"/>
     <use xlink:href="#DejaVuSans-75" x="1045.410156"/>
     <use xlink:href="#DejaVuSans-74" x="1108.789062"/>
     <use xlink:href="#DejaVuSans-61" x="1147.998047"/>
     <use xlink:href="#DejaVuSans-74" x="1209.277344"/>
     <use xlink:href="#DejaVuSans-69" x="1248.486328"/>
     <use xlink:href="#DejaVuSans-6f" x="1276.269531"/>
     <use xlink:href="#DejaVuSans-6e" x="1337.451172"/>
     <use xlink:href="#DejaVuSans-20" x="1400.830078"/>
     <use xlink:href="#DejaVuSans-43" x="1432.617188"/>
     <use xlink:href="#DejaVuSans-6f" x="1502.441406"/>
     <use xlink:href="#DejaVuSans-75" x="1563.623047"/>
     <use xlink:href="#DejaVuSans-6e" x="1627.001953"/>
     <use xlink:href="#DejaVuSans-74" x="1690.380859"/>
     <use xlink:href="#DejaVuSans-73" x="1729.589844"/>
    </g>
   </g>
   <g id="legend_1">
    <g id="patch_57">
     <path d="M 351.0375 49.558125 
L 407.9 49.558125 
Q 409.9 49.558125 409.9 47.558125 
L 409.9 33.88 
Q 409.9 31.88 407.9 31.88 
L 351.0375 31.88 
Q 349.0375 31.88 349.0375 33.88 
L 349.0375 47.558125 
Q 349.0375 49.558125 351.0375 49.558125 
z
" style="fill: #ffffff; opacity: 0.8; stroke: #cccccc; stroke-linejoin: miter"/>
    </g>
    <g id="patch_58">
     <path d="M 353.0375 43.478438 
L 373.0375 43.478438 
L 373.0375 36.478438 
L 353.0375 36.478438 
z
" style="fill: #4682b4; opacity: 0.7; stroke: #000000; stroke-linejoin: miter"/>
    </g>
    <g id="text_4">
     <!-- TP53 -->
     <g transform="translate(381.0375 43.478438) scale(0.1 -0.1)">
      <use xlink:href="#DejaVuSans-54"/>
      <use xlink:href="#DejaVuSans-50" x="61.083984"/>
      <use xlink:href="#DejaVuSans-35" x="121.386719"/>
      <use xlink:href="#DejaVuSans-33" x="185.009766"/>
     </g>
    </g>
   </g>
  </g>
  <g id="axes_2">
   <g id="patch_59">
    <path d="M 50.092685 678.04 
L 414.9 678.04 
L 414.9 359.677537 
L 50.092685 359.677537 
z
" style="fill: #ffffff"/>
   </g>
   <g id="patch_60">
    <path d="M 50.092685 99652.619637 
L 58.264369 99652.619637 
L 58.264369 374.148558 
L 50.092685 374.148558 
z
" clip-path="url(#p1897020e9d)" style="fill: #ff6347; opacity: 0.7; stroke: #000000; stroke-linejoin: miter"/>
   </g>
   <g id="patch_61">
    <path d="M 58.264369 99652.619637 
L 66.436052 99652.619637 
L 66.436052 454.643707 
L 58.264369 454.643707 
z
" clip-path="url(#p1897020e9d)" style="fill: #ff6347; opacity: 0.7; stroke: #000000; stroke-linejoin: miter"/>
   </g>
   <g id="patch_62">
    <path d="M 66.436052 99652.619637 
L 74.607736 99652.619637 
L 74.607736 99652.619637 
L 66.436052 99652.619637 
z
" clip-path="url(#p1897020e9d)" style="fill: #ff6347; opacity: 0.7; stroke: #000000; stroke-linejoin: miter"/>
   </g>
   <g id="patch_63">
    <path d="M 74.607736 99652.619637 
L 82.77942 99652.619637 
L 82.77942 520.316179 
L 74.607736 520.316179 
z
" clip-path="url(#p1897020e9d)" style="fill: #ff6347; opacity: 0.7; stroke: #000000; stroke-linejoin: miter"/>
   </g>
   <g id="patch_64">
    <path d="M 82.77942 99652.619637 
L 90.951104 99652.619637 
L 90.951104 99652.619637 
L 82.77942 99652.619637 
z
" clip-path="url(#p1897020e9d)" style="fill: #ff6347; opacity: 0.7; stroke: #000000; stroke-linejoin: miter"/>
   </g>
   <g id="patch_65">
    <path d="M 90.951104 99652.619637 
L 99.122788 99652.619637 
L 99.122788 603.971632 
L 90.951104 603.971632 
z
" clip-path="url(#p1897020e9d)" style="fill: #ff6347; opacity: 0.7; stroke: #000000; stroke-linejoin: miter"/>
   </g>
   <g id="patch_66">
    <path d="M 99.122788 99652.619637 
L 107.294472 99652.619637 
L 107.294472 99652.619637 
L 99.122788 99652.619637 
z
" clip-path="url(#p1897020e9d)" style="fill: #ff6347; opacity: 0.7; stroke: #000000; stroke-linejoin: miter"/>
   </g>
   <g id="patch_67">
    <path d="M 107.294472 99652.619637 
L 115.466156 99652.619637 
L 115.466156 633.770305 
L 107.294472 633.770305 
z
" clip-path="url(#p1897020e9d)" style="fill: #ff6347; opacity: 0.7; stroke: #000000; stroke-linejoin: miter"/>
   </g>
   <g id="patch_68">
    <path d="M 115.466156 99652.619637 
L 123.63784 99652.619637 
L 123.63784 633.770305 
L 115.466156 633.770305 
z
" clip-path="url(#p1897020e9d)" style="fill: #ff6347; opacity: 0.7; stroke: #000000; stroke-linejoin: miter"/>
   </g>
   <g id="patch_69">
    <path d="M 123.63784 99652.619637 
L 131.809523 99652.619637 
L 131.809523 99652.619637 
L 123.63784 99652.619637 
z
" clip-path="url(#p1897020e9d)" style="fill: #ff6347; opacity: 0.7; stroke: #000000; stroke-linejoin: miter"/>
   </g>
   <g id="patch_70">
    <path d="M 131.809523 99652.619637 
L 139.981207 99652.619637 
L 139.981207 663.568979 
L 131.809523 663.568979 
z
" clip-path="url(#p1897020e9d)" style="fill: #ff6347; opacity: 0.7; stroke: #000000; stroke-linejoin: miter"/>
   </g>
   <g id="patch_71">
    <path d="M 139.981207 99652.619637 
L 148.152891 99652.619637 
L 148.152891 99652.619637 
L 139.981207 99652.619637 
z
" clip-path="url(#p1897020e9d)" style="fill: #ff6347; opacity: 0.7; stroke: #000000; stroke-linejoin: miter"/>
   </g>
   <g id="patch_72">
    <path d="M 148.152891 99652.619637 
L 156.324575 99652.619637 
L 156.324575 663.568979 
L 148.152891 663.568979 
z
" clip-path="url(#p1897020e9d)" style="fill: #ff6347; opacity: 0.7; stroke: #000000; stroke-linejoin: miter"/>
   </g>
   <g id="patch_73">
    <path d="M 156.324575 99652.619637 
L 164.496259 99652.619637 
L 164.496259 99652.619637 
L 156.324575 99652.619637 
z
" clip-path="url(#p1897020e9d)" style="fill: #ff6347; opacity: 0.7; stroke: #000000; stroke-linejoin: miter"/>
   </g>
   <g id="patch_74">
    <path d="M 164.496259 99652.619637 
L 172.667943 99652.619637 
L 172.667943 99652.619637 
L 164.496259 99652.619637 
z
" clip-path="url(#p1897020e9d)" style="fill: #ff6347; opacity: 0.7; stroke: #000000; stroke-linejoin: miter"/>
   </g>
   <g id="patch_75">
    <path d="M 172.667943 99652.619637 
L 180.839627 99652.619637 
L 180.839627 99652.619637 
L 172.667943 99652.619637 
z
" clip-path="url(#p1897020e9d)" style="fill: #ff6347; opacity: 0.7; stroke: #000000; stroke-linejoin: miter"/>
   </g>
   <g id="patch_76">
    <path d="M 180.839627 99652.619637 
L 189.01131 99652.619637 
L 189.01131 99652.619637 
L 180.839627 99652.619637 
z
" clip-path="url(#p1897020e9d)" style="fill: #ff6347; opacity: 0.7; stroke: #000000; stroke-linejoin: miter"/>
   </g>
   <g id="patch_77">
    <path d="M 189.01131 99652.619637 
L 197.182994 99652.619637 
L 197.182994 99652.619637 
L 189.01131 99652.619637 
z
" clip-path="url(#p1897020e9d)" style="fill: #ff6347; opacity: 0.7; stroke: #000000; stroke-linejoin: miter"/>
   </g>
   <g id="patch_78">
    <path d="M 197.182994 99652.619637 
L 205.354678 99652.619637 
L 205.354678 99652.619637 
L 197.182994 99652.619637 
z
" clip-path="url(#p1897020e9d)" style="fill: #ff6347; opacity: 0.7; stroke: #000000; stroke-linejoin: miter"/>
   </g>
   <g id="patch_79">
    <path d="M 205.354678 99652.619637 
L 213.526362 99652.619637 
L 213.526362 99652.619637 
L 205.354678 99652.619637 
z
" clip-path="url(#p1897020e9d)" style="fill: #ff6347; opacity: 0.7; stroke: #000000; stroke-linejoin: miter"/>
   </g>
   <g id="patch_80">
    <path d="M 213.526362 99652.619637 
L 221.698046 99652.619637 
L 221.698046 99652.619637 
L 213.526362 99652.619637 
z
" clip-path="url(#p1897020e9d)" style="fill: #ff6347; opacity: 0.7; stroke: #000000; stroke-linejoin: miter"/>
   </g>
   <g id="patch_81">
    <path d="M 221.698046 99652.619637 
L 229.86973 99652.619637 
L 229.86973 663.568979 
L 221.698046 663.568979 
z
" clip-path="url(#p1897020e9d)" style="fill: #ff6347; opacity: 0.7; stroke: #000000; stroke-linejoin: miter"/>
   </g>
   <g id="patch_82">
    <path d="M 229.86973 99652.619637 
L 238.041414 99652.619637 
L 238.041414 99652.619637 
L 229.86973 99652.619637 
z
" clip-path="url(#p1897020e9d)" style="fill: #ff6347; opacity: 0.7; stroke: #000000; stroke-linejoin: miter"/>
   </g>
   <g id="patch_83">
    <path d="M 238.041414 99652.619637 
L 246.213097 99652.619637 
L 246.213097 99652.619637 
L 238.041414 99652.619637 
z
" clip-path="url(#p1897020e9d)" style="fill: #ff6347; opacity: 0.7; stroke: #000000; stroke-linejoin: miter"/>
   </g>
   <g id="patch_84">
    <path d="M 246.213097 99652.619637 
L 254.384781 99652.619637 
L 254.384781 99652.619637 
L 246.213097 99652.619637 
z
" clip-path="url(#p1897020e9d)" style="fill: #ff6347; opacity: 0.7; stroke: #000000; stroke-linejoin: miter"/>
   </g>
   <g id="patch_85">
    <path d="M 254.384781 99652.619637 
L 262.556465 99652.619637 
L 262.556465 99652.619637 
L 254.384781 99652.619637 
z
" clip-path="url(#p1897020e9d)" style="fill: #ff6347; opacity: 0.7; stroke: #000000; stroke-linejoin: miter"/>
   </g>
   <g id="patch_86">
    <path d="M 262.556465 99652.619637 
L 270.728149 99652.619637 
L 270.728149 99652.619637 
L 262.556465 99652.619637 
z
" clip-path="url(#p1897020e9d)" style="fill: #ff6347; opacity: 0.7; stroke: #000000; stroke-linejoin: miter"/>
   </g>
   <g id="patch_87">
    <path d="M 270.728149 99652.619637 
L 278.899833 99652.619637 
L 278.899833 99652.619637 
L 270.728149 99652.619637 
z
" clip-path="url(#p1897020e9d)" style="fill: #ff6347; opacity: 0.7; stroke: #000000; stroke-linejoin: miter"/>
   </g>
   <g id="patch_88">
    <path d="M 278.899833 99652.619637 
L 287.071517 99652.619637 
L 287.071517 99652.619637 
L 278.899833 99652.619637 
z
" clip-path="url(#p1897020e9d)" style="fill: #ff6347; opacity: 0.7; stroke: #000000; stroke-linejoin: miter"/>
   </g>
   <g id="patch_89">
    <path d="M 287.071517 99652.619637 
L 295.243201 99652.619637 
L 295.243201 99652.619637 
L 287.071517 99652.619637 
z
" clip-path="url(#p1897020e9d)" style="fill: #ff6347; opacity: 0.7; stroke: #000000; stroke-linejoin: miter"/>
   </g>
   <g id="patch_90">
    <path d="M 295.243201 99652.619637 
L 303.414884 99652.619637 
L 303.414884 99652.619637 
L 295.243201 99652.619637 
z
" clip-path="url(#p1897020e9d)" style="fill: #ff6347; opacity: 0.7; stroke: #000000; stroke-linejoin: miter"/>
   </g>
   <g id="patch_91">
    <path d="M 303.414884 99652.619637 
L 311.586568 99652.619637 
L 311.586568 99652.619637 
L 303.414884 99652.619637 
z
" clip-path="url(#p1897020e9d)" style="fill: #ff6347; opacity: 0.7; stroke: #000000; stroke-linejoin: miter"/>
   </g>
   <g id="patch_92">
    <path d="M 311.586568 99652.619637 
L 319.758252 99652.619637 
L 319.758252 99652.619637 
L 311.586568 99652.619637 
z
" clip-path="url(#p1897020e9d)" style="fill: #ff6347; opacity: 0.7; stroke: #000000; stroke-linejoin: miter"/>
   </g>
   <g id="patch_93">
    <path d="M 319.758252 99652.619637 
L 327.929936 99652.619637 
L 327.929936 99652.619637 
L 319.758252 99652.619637 
z
" clip-path="url(#p1897020e9d)" style="fill: #ff6347; opacity: 0.7; stroke: #000000; stroke-linejoin: miter"/>
   </g>
   <g id="patch_94">
    <path d="M 327.929936 99652.619637 
L 336.10162 99652.619637 
L 336.10162 99652.619637 
L 327.929936 99652.619637 
z
" clip-path="url(#p1897020e9d)" style="fill: #ff6347; opacity: 0.7; stroke: #000000; stroke-linejoin: miter"/>
   </g>
   <g id="patch_95">
    <path d="M 336.10162 99652.619637 
L 344.273304 99652.619637 
L 344.273304 99652.619637 
L 336.10162 99652.619637 
z
" clip-path="url(#p1897020e9d)" style="fill: #ff6347; opacity: 0.7; stroke: #000000; stroke-linejoin: miter"/>
   </g>
   <g id="patch_96">
    <path d="M 344.273304 99652.619637 
L 352.444988 99652.619637 
L 352.444988 99652.619637 
L 344.273304 99652.619637 
z
" clip-path="url(#p1897020e9d)" style="fill: #ff6347; opacity: 0.7; stroke: #000000; stroke-linejoin: miter"/>
   </g>
   <g id="patch_97">
    <path d="M 352.444988 99652.619637 
L 360.616671 99652.619637 
L 360.616671 99652.619637 
L 352.444988 99652.619637 
z
" clip-path="url(#p1897020e9d)" style="fill: #ff6347; opacity: 0.7; stroke: #000000; stroke-linejoin: miter"/>
   </g>
   <g id="patch_98">
    <path d="M 360.616671 99652.619637 
L 368.788355 99652.619637 
L 368.788355 99652.619637 
L 360.616671 99652.619637 
z
" clip-path="url(#p1897020e9d)" style="fill: #ff6347; opacity: 0.7; stroke: #000000; stroke-linejoin: miter"/>
   </g>
   <g id="patch_99">
    <path d="M 368.788355 99652.619637 
L 376.960039 99652.619637 
L 376.960039 99652.619637 
L 368.788355 99652.619637 
z
" clip-path="url(#p1897020e9d)" style="fill: #ff6347; opacity: 0.7; stroke: #000000; stroke-linejoin: miter"/>
   </g>
   <g id="patch_100">
    <path d="M 376.960039 99652.619637 
L 385.131723 99652.619637 
L 385.131723 99652.619637 
L 376.960039 99652.619637 
z
" clip-path="url(#p1897020e9d)" style="fill: #ff6347; opacity: 0.7; stroke: #000000; stroke-linejoin: miter"/>
   </g>
   <g id="patch_101">
    <path d="M 385.131723 99652.619637 
L 393.303407 99652.619637 
L 393.303407 99652.619637 
L 385.131723 99652.619637 
z
" clip-path="url(#p1897020e9d)" style="fill: #ff6347; opacity: 0.7; stroke: #000000; stroke-linejoin: miter"/>
   </g>
   <g id="patch_102">
    <path d="M 393.303407 99652.619637 
L 401.475091 99652.619637 
L 401.475091 99652.619637 
L 393.303407 99652.619637 
z
" clip-path="url(#p1897020e9d)" style="fill: #ff6347; opacity: 0.7; stroke: #000000; stroke-linejoin: miter"/>
   </g>
   <g id="patch_103">
    <path d="M 401.475091 99652.619637 
L 409.646775 99652.619637 
L 409.646775 99652.619637 
L 401.475091 99652.619637 
z
" clip-path="url(#p1897020e9d)" style="fill: #ff6347; opacity: 0.7; stroke: #000000; stroke-linejoin: miter"/>
   </g>
   <g id="patch_104">
    <path d="M 409.646775 99652.619637 
L 417.818459 99652.619637 
L 417.818459 99652.619637 
L 409.646775 99652.619637 
z
" clip-path="url(#p1897020e9d)" style="fill: #ff6347; opacity: 0.7; stroke: #000000; stroke-linejoin: miter"/>
   </g>
   <g id="patch_105">
    <path d="M 417.818459 99652.619637 
L 425.990142 99652.619637 
L 425.990142 99652.619637 
L 417.818459 99652.619637 
z
" clip-path="url(#p1897020e9d)" style="fill: #ff6347; opacity: 0.7; stroke: #000000; stroke-linejoin: miter"/>
   </g>
   <g id="patch_106">
    <path d="M 425.990142 99652.619637 
L 434.161826 99652.619637 
L 434.161826 99652.619637 
L 425.990142 99652.619637 
z
" clip-path="url(#p1897020e9d)" style="fill: #ff6347; opacity: 0.7; stroke: #000000; stroke-linejoin: miter"/>
   </g>
   <g id="patch_107">
    <path d="M 434.161826 99652.619637 
L 442.33351 99652.619637 
L 442.33351 99652.619637 
L 434.161826 99652.619637 
z
" clip-path="url(#p1897020e9d)" style="fill: #ff6347; opacity: 0.7; stroke: #000000; stroke-linejoin: miter"/>
   </g>
   <g id="patch_108">
    <path d="M 442.33351 99652.619637 
L 450.505194 99652.619637 
L 450.505194 99652.619637 
L 442.33351 99652.619637 
z
" clip-path="url(#p1897020e9d)" style="fill: #ff6347; opacity: 0.7; stroke: #000000; stroke-linejoin: miter"/>
   </g>
   <g id="patch_109">
    <path d="M 450.505194 99652.619637 
L 458.676878 99652.619637 
L 458.676878 663.568979 
L 450.505194 663.568979 
z
" clip-path="url(#p1897020e9d)" style="fill: #ff6347; opacity: 0.7; stroke: #000000; stroke-linejoin: miter"/>
   </g>
   <g id="matplotlib.axis_3">
    <g id="xtick_7">
     <g id="line2d_24">
      <g>
       <use xlink:href="#m0ca2636fa7" x="50.092685" y="678.04" style="stroke: #000000; stroke-width: 0.8"/>
      </g>
     </g>
     <g id="text_5">
      <!-- 0 -->
      <g transform="translate(46.911435 692.638438) scale(0.1 -0.1)">
       <use xlink:href="#DejaVuSans-30"/>
      </g>
     </g>
    </g>
    <g id="xtick_8">
     <g id="line2d_25">
      <g>
       <use xlink:href="#m0ca2636fa7" x="123.054148" y="678.04" style="stroke: #000000; stroke-width: 0.8"/>
      </g>
     </g>
     <g id="text_6">
      <!-- 5 -->
      <g transform="translate(119.872898 692.638438) scale(0.1 -0.1)">
       <use xlink:href="#DejaVuSans-35"/>
      </g>
     </g>
    </g>
    <g id="xtick_9">
     <g id="line2d_26">
      <g>
       <use xlink:href="#m0ca2636fa7" x="196.015611" y="678.04" style="stroke: #000000; stroke-width: 0.8"/>
      </g>
     </g>
     <g id="text_7">
      <!-- 10 -->
      <g transform="translate(189.653111 692.638438) scale(0.1 -0.1)">
       <use xlink:href="#DejaVuSans-31"/>
       <use xlink:href="#DejaVuSans-30" x="63.623047"/>
      </g>
     </g>
    </g>
    <g id="xtick_10">
     <g id="line2d_27">
      <g>
       <use xlink:href="#m0ca2636fa7" x="268.977074" y="678.04" style="stroke: #000000; stroke-width: 0.8"/>
      </g>
     </g>
     <g id="text_8">
      <!-- 15 -->
      <g transform="translate(262.614574 692.638438) scale(0.1 -0.1)">
       <use xlink:href="#DejaVuSans-31"/>
       <use xlink:href="#DejaVuSans-35" x="63.623047"/>
      </g>
     </g>
    </g>
    <g id="xtick_11">
     <g id="line2d_28">
      <g>
       <use xlink:href="#m0ca2636fa7" x="341.938537" y="678.04" style="stroke: #000000; stroke-width: 0.8"/>
      </g>
     </g>
     <g id="text_9">
      <!-- 20 -->
      <g transform="translate(335.576037 692.638438) scale(0.1 -0.1)">
       <use xlink:href="#DejaVuSans-32"/>
       <use xlink:href="#DejaVuSans-30" x="63.623047"/>
      </g>
     </g>
    </g>
    <g id="xtick_12">
     <g id="line2d_29">
      <g>
       <use xlink:href="#m0ca2636fa7" x="414.9" y="678.04" style="stroke: #000000; stroke-width: 0.8"/>
      </g>
     </g>
     <g id="text_10">
      <!-- 25 -->
      <g transform="translate(408.5375 692.638438) scale(0.1 -0.1)">
       <use xlink:href="#DejaVuSans-32"/>
       <use xlink:href="#DejaVuSans-35" x="63.623047"/>
      </g>
     </g>
    </g>
    <g id="text_11">
     <!-- Mutation Counts -->
     <g transform="translate(191.36978 706.316563) scale(0.1 -0.1)">
      <use xlink:href="#DejaVuSans-4d"/>
      <use xlink:href="#DejaVuSans-75" x="86.279297"/>
      <use xlink:href="#DejaVuSans-74" x="149.658203"/>
      <use xlink:href="#DejaVuSans-61" x="188.867188"/>
      <use xlink:href="#DejaVuSans-74" x="250.146484"/>
      <use xlink:href="#DejaVuSans-69" x="289.355469"/>
      <use xlink:href="#DejaVuSans-6f" x="317.138672"/>
      <use xlink:href="#DejaVuSans-6e" x="378.320312"/>
      <use xlink:href="#DejaVuSans-20" x="441.699219"/>
      <use xlink:href="#DejaVuSans-43" x="473.486328"/>
      <use xlink:href="#DejaVuSans-6f" x="543.310547"/>
      <use xlink:href="#DejaVuSans-75" x="604.492188"/>
      <use xlink:href="#DejaVuSans-6e" x="667.871094"/>
      <use xlink:href="#DejaVuSans-74" x="731.25"/>
      <use xlink:href="#DejaVuSans-73" x="770.458984"/>
     </g>
    </g>
   </g>
   <g id="matplotlib.axis_4">
    <g id="ytick_18">
     <g id="line2d_30">
      <g>
       <use xlink:href="#m267685d566" x="50.092685" y="663.568979" style="stroke: #000000; stroke-width: 0.8"/>
      </g>
     </g>
     <g id="text_12">
      <!-- $\mathdefault{10^{0}}$ -->
      <g transform="translate(25.492685 667.368198) scale(0.1 -0.1)">
       <use xlink:href="#DejaVuSans-31" transform="translate(0 0.765625)"/>
       <use xlink:href="#DejaVuSans-30" transform="translate(63.623047 0.765625)"/>
       <use xlink:href="#DejaVuSans-30" transform="translate(128.203125 39.046875) scale(0.7)"/>
      </g>
     </g>
    </g>
    <g id="ytick_19">
     <g id="line2d_31">
      <g>
       <use xlink:href="#m267685d566" x="50.092685" y="564.579928" style="stroke: #000000; stroke-width: 0.8"/>
      </g>
     </g>
     <g id="text_13">
      <!-- $\mathdefault{10^{1}}$ -->
      <g transform="translate(25.492685 568.379147) scale(0.1 -0.1)">
       <use xlink:href="#DejaVuSans-31" transform="translate(0 0.684375)"/>
       <use xlink:href="#DejaVuSans-30" transform="translate(63.623047 0.684375)"/>
       <use xlink:href="#DejaVuSans-31" transform="translate(128.203125 38.965625) scale(0.7)"/>
      </g>
     </g>
    </g>
    <g id="ytick_20">
     <g id="line2d_32">
      <g>
       <use xlink:href="#m267685d566" x="50.092685" y="465.590878" style="stroke: #000000; stroke-width: 0.8"/>
      </g>
     </g>
     <g id="text_14">
      <!-- $\mathdefault{10^{2}}$ -->
      <g transform="translate(25.492685 469.390096) scale(0.1 -0.1)">
       <use xlink:href="#DejaVuSans-31" transform="translate(0 0.765625)"/>
       <use xlink:href="#DejaVuSans-30" transform="translate(63.623047 0.765625)"/>
       <use xlink:href="#DejaVuSans-32" transform="translate(128.203125 39.046875) scale(0.7)"/>
      </g>
     </g>
    </g>
    <g id="ytick_21">
     <g id="line2d_33">
      <g>
       <use xlink:href="#m267685d566" x="50.092685" y="366.601827" style="stroke: #000000; stroke-width: 0.8"/>
      </g>
     </g>
     <g id="text_15">
      <!-- $\mathdefault{10^{3}}$ -->
      <g transform="translate(25.492685 370.401046) scale(0.1 -0.1)">
       <use xlink:href="#DejaVuSans-31" transform="translate(0 0.765625)"/>
       <use xlink:href="#DejaVuSans-30" transform="translate(63.623047 0.765625)"/>
       <use xlink:href="#DejaVuSans-33" transform="translate(128.203125 39.046875) scale(0.7)"/>
      </g>
     </g>
    </g>
    <g id="ytick_22">
     <g id="line2d_34">
      <g>
       <use xlink:href="#m13924427ac" x="50.092685" y="673.162009" style="stroke: #000000; stroke-width: 0.6"/>
      </g>
     </g>
    </g>
    <g id="ytick_23">
     <g id="line2d_35">
      <g>
       <use xlink:href="#m13924427ac" x="50.092685" y="668.09847" style="stroke: #000000; stroke-width: 0.6"/>
      </g>
     </g>
    </g>
    <g id="ytick_24">
     <g id="line2d_36">
      <g>
       <use xlink:href="#m13924427ac" x="50.092685" y="633.770305" style="stroke: #000000; stroke-width: 0.6"/>
      </g>
     </g>
    </g>
    <g id="ytick_25">
     <g id="line2d_37">
      <g>
       <use xlink:href="#m13924427ac" x="50.092685" y="616.339199" style="stroke: #000000; stroke-width: 0.6"/>
      </g>
     </g>
    </g>
    <g id="ytick_26">
     <g id="line2d_38">
      <g>
       <use xlink:href="#m13924427ac" x="50.092685" y="603.971632" style="stroke: #000000; stroke-width: 0.6"/>
      </g>
     </g>
    </g>
    <g id="ytick_27">
     <g id="line2d_39">
      <g>
       <use xlink:href="#m13924427ac" x="50.092685" y="594.378602" style="stroke: #000000; stroke-width: 0.6"/>
      </g>
     </g>
    </g>
    <g id="ytick_28">
     <g id="line2d_40">
      <g>
       <use xlink:href="#m13924427ac" x="50.092685" y="586.540525" style="stroke: #000000; stroke-width: 0.6"/>
      </g>
     </g>
    </g>
    <g id="ytick_29">
     <g id="line2d_41">
      <g>
       <use xlink:href="#m13924427ac" x="50.092685" y="579.913526" style="stroke: #000000; stroke-width: 0.6"/>
      </g>
     </g>
    </g>
    <g id="ytick_30">
     <g id="line2d_42">
      <g>
       <use xlink:href="#m13924427ac" x="50.092685" y="574.172958" style="stroke: #000000; stroke-width: 0.6"/>
      </g>
     </g>
    </g>
    <g id="ytick_31">
     <g id="line2d_43">
      <g>
       <use xlink:href="#m13924427ac" x="50.092685" y="569.109419" style="stroke: #000000; stroke-width: 0.6"/>
      </g>
     </g>
    </g>
    <g id="ytick_32">
     <g id="line2d_44">
      <g>
       <use xlink:href="#m13924427ac" x="50.092685" y="534.781255" style="stroke: #000000; stroke-width: 0.6"/>
      </g>
     </g>
    </g>
    <g id="ytick_33">
     <g id="line2d_45">
      <g>
       <use xlink:href="#m13924427ac" x="50.092685" y="517.350148" style="stroke: #000000; stroke-width: 0.6"/>
      </g>
     </g>
    </g>
    <g id="ytick_34">
     <g id="line2d_46">
      <g>
       <use xlink:href="#m13924427ac" x="50.092685" y="504.982581" style="stroke: #000000; stroke-width: 0.6"/>
      </g>
     </g>
    </g>
    <g id="ytick_35">
     <g id="line2d_47">
      <g>
       <use xlink:href="#m13924427ac" x="50.092685" y="495.389551" style="stroke: #000000; stroke-width: 0.6"/>
      </g>
     </g>
    </g>
    <g id="ytick_36">
     <g id="line2d_48">
      <g>
       <use xlink:href="#m13924427ac" x="50.092685" y="487.551475" style="stroke: #000000; stroke-width: 0.6"/>
      </g>
     </g>
    </g>
    <g id="ytick_37">
     <g id="line2d_49">
      <g>
       <use xlink:href="#m13924427ac" x="50.092685" y="480.924476" style="stroke: #000000; stroke-width: 0.6"/>
      </g>
     </g>
    </g>
    <g id="ytick_38">
     <g id="line2d_50">
      <g>
       <use xlink:href="#m13924427ac" x="50.092685" y="475.183908" style="stroke: #000000; stroke-width: 0.6"/>
      </g>
     </g>
    </g>
    <g id="ytick_39">
     <g id="line2d_51">
      <g>
       <use xlink:href="#m13924427ac" x="50.092685" y="470.120368" style="stroke: #000000; stroke-width: 0.6"/>
      </g>
     </g>
    </g>
    <g id="ytick_40">
     <g id="line2d_52">
      <g>
       <use xlink:href="#m13924427ac" x="50.092685" y="435.792204" style="stroke: #000000; stroke-width: 0.6"/>
      </g>
     </g>
    </g>
    <g id="ytick_41">
     <g id="line2d_53">
      <g>
       <use xlink:href="#m13924427ac" x="50.092685" y="418.361098" style="stroke: #000000; stroke-width: 0.6"/>
      </g>
     </g>
    </g>
    <g id="ytick_42">
     <g id="line2d_54">
      <g>
       <use xlink:href="#m13924427ac" x="50.092685" y="405.993531" style="stroke: #000000; stroke-width: 0.6"/>
      </g>
     </g>
    </g>
    <g id="ytick_43">
     <g id="line2d_55">
      <g>
       <use xlink:href="#m13924427ac" x="50.092685" y="396.4005" style="stroke: #000000; stroke-width: 0.6"/>
      </g>
     </g>
    </g>
    <g id="ytick_44">
     <g id="line2d_56">
      <g>
       <use xlink:href="#m13924427ac" x="50.092685" y="388.562424" style="stroke: #000000; stroke-width: 0.6"/>
      </g>
     </g>
    </g>
    <g id="ytick_45">
     <g id="line2d_57">
      <g>
       <use xlink:href="#m13924427ac" x="50.092685" y="381.935425" style="stroke: #000000; stroke-width: 0.6"/>
      </g>
     </g>
    </g>
    <g id="ytick_46">
     <g id="line2d_58">
      <g>
       <use xlink:href="#m13924427ac" x="50.092685" y="376.194857" style="stroke: #000000; stroke-width: 0.6"/>
      </g>
     </g>
    </g>
    <g id="ytick_47">
     <g id="line2d_59">
      <g>
       <use xlink:href="#m13924427ac" x="50.092685" y="371.131318" style="stroke: #000000; stroke-width: 0.6"/>
      </g>
     </g>
    </g>
    <g id="text_16">
     <!-- Frequency -->
     <g transform="translate(19.412997 544.688456) rotate(-90) scale(0.1 -0.1)">
      <use xlink:href="#DejaVuSans-46"/>
      <use xlink:href="#DejaVuSans-72" x="50.269531"/>
      <use xlink:href="#DejaVuSans-65" x="89.132812"/>
      <use xlink:href="#DejaVuSans-71" x="150.65625"/>
      <use xlink:href="#DejaVuSans-75" x="214.132812"/>
      <use xlink:href="#DejaVuSans-65" x="277.511719"/>
      <use xlink:href="#DejaVuSans-6e" x="339.035156"/>
      <use xlink:href="#DejaVuSans-63" x="402.414062"/>
      <use xlink:href="#DejaVuSans-79" x="457.394531"/>
     </g>
    </g>
   </g>
   <g id="patch_110">
    <path d="M 50.092685 678.04 
L 50.092685 359.677537 
" style="fill: none; stroke: #000000; stroke-width: 0.8; stroke-linejoin: miter; stroke-linecap: square"/>
   </g>
   <g id="patch_111">
    <path d="M 414.9 678.04 
L 414.9 359.677537 
" style="fill: none; stroke: #000000; stroke-width: 0.8; stroke-linejoin: miter; stroke-linecap: square"/>
   </g>
   <g id="patch_112">
    <path d="M 50.092685 678.04 
L 414.9 678.04 
" style="fill: none; stroke: #000000; stroke-width: 0.8; stroke-linejoin: miter; stroke-linecap: square"/>
   </g>
   <g id="patch_113">
    <path d="M 50.092685 359.677537 
L 414.9 359.677537 
" style="fill: none; stroke: #000000; stroke-width: 0.8; stroke-linejoin: miter; stroke-linecap: square"/>
   </g>
   <g id="legend_2">
    <g id="patch_114">
     <path d="M 356.378125 382.355662 
L 407.9 382.355662 
Q 409.9 382.355662 409.9 380.355662 
L 409.9 366.677537 
Q 409.9 364.677537 407.9 364.677537 
L 356.378125 364.677537 
Q 354.378125 364.677537 354.378125 366.677537 
L 354.378125 380.355662 
Q 354.378125 382.355662 356.378125 382.355662 
z
" style="fill: #ffffff; opacity: 0.8; stroke: #cccccc; stroke-linejoin: miter"/>
    </g>
    <g id="patch_115">
     <path d="M 358.378125 376.275975 
L 378.378125 376.275975 
L 378.378125 369.275975 
L 358.378125 369.275975 
z
" style="fill: #ff6347; opacity: 0.7; stroke: #000000; stroke-linejoin: miter"/>
    </g>
    <g id="text_17">
     <!-- TTN -->
     <g transform="translate(386.378125 376.275975) scale(0.1 -0.1)">
      <defs>
       <path id="DejaVuSans-4e" d="M 628 4666 
L 1478 4666 
L 3547 763 
L 3547 4666 
L 4159 4666 
L 4159 0 
L 3309 0 
L 1241 3903 
L 1241 0 
L 628 0 
L 628 4666 
z
" transform="scale(0.015625)"/>
      </defs>
      <use xlink:href="#DejaVuSans-54"/>
      <use xlink:href="#DejaVuSans-54" x="59.333984"/>
      <use xlink:href="#DejaVuSans-4e" x="120.417969"/>
     </g>
    </g>
   </g>
  </g>
 </g>
 <defs>
  <clipPath id="p5c7f5aebac">
   <rect x="50.092685" y="26.88" width="364.807315" height="318.362463"/>
  </clipPath>
  <clipPath id="p1897020e9d">
   <rect x="50.092685" y="359.677537" width="364.807315" height="318.362463"/>
  </clipPath>
 </defs>
</svg>
